<svg width="18" height="20" viewBox="0 0 18 20" fill="none" xmlns="http://www.w3.org/2000/svg">
<path d="M9.44711 0C7.33473 0 5.60096 1.73377 5.60096 3.84615V4.61538H1.80288L1.75481 5.33654L0.985577 19.1827L0.9375 20H17.9567L17.9087 19.1827L17.1394 5.33654L17.0913 4.61538H13.2933V3.84615C13.2933 1.73377 11.5595 0 9.44711 0ZM9.44711 1.53846C10.7212 1.53846 11.7548 2.57212 11.7548 3.84615V4.61538H7.13942V3.84615C7.13942 2.57212 8.17308 1.53846 9.44711 1.53846ZM3.24519 6.15385H5.60096V8.46154H7.13942V6.15385H11.7548V8.46154H13.2933V6.15385H15.649L16.3221 18.4615H2.57212L3.24519 6.15385Z" fill="#172342"/>
</svg>
