<svg width="28" height="28" viewBox="0 0 28 28" fill="none" xmlns="http://www.w3.org/2000/svg">
<path d="M14 0.666626C6.64932 0.666626 0.666626 6.64932 0.666626 14C0.666626 21.3506 6.64932 27.3333 14 27.3333C21.3506 27.3333 27.3333 21.3506 27.3333 14C27.3333 6.64932 21.3506 0.666626 14 0.666626ZM14 2.88885C20.1496 2.88885 25.1111 7.8503 25.1111 14C25.1111 20.1496 20.1496 25.1111 14 25.1111C7.8503 25.1111 2.88885 20.1496 2.88885 14C2.88885 7.8503 7.8503 2.88885 14 2.88885ZM10.3411 8.76992L8.76992 10.3411L12.4288 14L8.76992 17.6588L10.3411 19.23L14 15.5711L17.6588 19.23L19.23 17.6588L15.5711 14L19.23 10.3411L17.6588 8.76992L14 12.4288L10.3411 8.76992Z" fill="#172342"/>
</svg>
